<svg xmlns="http://www.w3.org/2000/svg" xmlns:xlink="http://www.w3.org/1999/xlink" version="1.1" width="256" height="256" viewBox="0 0 256 256" xml:space="preserve">

<defs>
</defs>
<g style="stroke: none; stroke-width: 0; stroke-dasharray: none; stroke-linecap: butt; stroke-linejoin: miter; stroke-miterlimit: 10; fill: none; fill-rule: nonzero; opacity: 1;" transform="translate(1.4065934065934016 1.4065934065934016) scale(2.81 2.81)" >
	<path d="M 3 90 c -0.784 0 -1.55 -0.307 -2.122 -0.879 c -0.799 -0.799 -1.082 -1.979 -0.73 -3.054 l 6.005 -18.361 C 2.124 60.827 0 53.007 0 45 C 0 20.187 20.187 0 45 0 c 24.813 0 45 20.187 45 45 c 0 24.813 -20.187 45 -45 45 c -8.007 0 -15.826 -2.123 -22.707 -6.153 L 3.933 89.852 C 3.626 89.951 3.312 90 3 90 z M 22.671 77.566 c 0.559 0 1.114 0.156 1.598 0.461 C 30.479 81.935 37.648 84 45 84 c 21.505 0 39 -17.495 39 -39 S 66.505 6 45 6 S 6 23.495 6 45 c 0 7.353 2.065 14.521 5.972 20.73 c 0.475 0.755 0.59 1.683 0.313 2.53 L 7.69 82.31 l 14.049 -4.595 C 22.043 77.615 22.358 77.566 22.671 77.566 z" style="stroke: none; stroke-width: 1; stroke-dasharray: none; stroke-linecap: butt; stroke-linejoin: miter; stroke-miterlimit: 10; fill: rgb(0,0,0); fill-rule: nonzero; opacity: 1;" transform=" matrix(1 0 0 1 0 0) " stroke-linecap="round" />
	<path d="M 61.04 49 c -1.05 0 -2.08 -0.431 -2.83 -1.17 c -0.18 -0.19 -0.351 -0.391 -0.49 -0.61 c -0.15 -0.22 -0.27 -0.45 -0.37 -0.689 c -0.1 -0.24 -0.18 -0.49 -0.229 -0.75 c -0.051 -0.26 -0.08 -0.52 -0.08 -0.78 c 0 -1.05 0.43 -2.08 1.17 -2.83 c 0.75 -0.74 1.78 -1.17 2.83 -1.17 c 1.06 0 2.09 0.43 2.83 1.17 c 0.739 0.75 1.17 1.78 1.17 2.83 c 0 1.05 -0.431 2.08 -1.17 2.83 C 63.13 48.569 62.1 49 61.04 49 z" style="stroke: none; stroke-width: 1; stroke-dasharray: none; stroke-linecap: butt; stroke-linejoin: miter; stroke-miterlimit: 10; fill: rgb(0,0,0); fill-rule: nonzero; opacity: 1;" transform=" matrix(1 0 0 1 0 0) " stroke-linecap="round" />
	<path d="M 45 49 c -1.05 0 -2.08 -0.431 -2.83 -1.17 c -0.18 -0.19 -0.35 -0.391 -0.5 -0.61 c -0.14 -0.22 -0.26 -0.45 -0.36 -0.689 c -0.1 -0.24 -0.18 -0.49 -0.23 -0.75 C 41.03 45.52 41 45.26 41 45 c 0 -1.05 0.43 -2.08 1.17 -2.83 c 0.93 -0.93 2.31 -1.35 3.61 -1.09 c 0.26 0.05 0.51 0.13 0.75 0.23 c 0.239 0.1 0.47 0.22 0.689 0.36 c 0.22 0.15 0.42 0.32 0.61 0.5 C 48.569 42.92 49 43.95 49 45 c 0 1.05 -0.431 2.08 -1.17 2.83 C 47.08 48.569 46.05 49 45 49 z" style="stroke: none; stroke-width: 1; stroke-dasharray: none; stroke-linecap: butt; stroke-linejoin: miter; stroke-miterlimit: 10; fill: rgb(0,0,0); fill-rule: nonzero; opacity: 1;" transform=" matrix(1 0 0 1 0 0) " stroke-linecap="round" />
	<path d="M 28.96 49 c -1.05 0 -2.09 -0.431 -2.83 -1.17 c -0.18 -0.19 -0.35 -0.391 -0.5 -0.61 c -0.14 -0.22 -0.27 -0.45 -0.36 -0.689 c -0.1 -0.24 -0.18 -0.49 -0.23 -0.75 c -0.05 -0.26 -0.08 -0.52 -0.08 -0.78 c 0 -1.05 0.43 -2.08 1.17 -2.83 c 0.93 -0.93 2.31 -1.35 3.61 -1.09 c 0.25 0.05 0.51 0.13 0.75 0.23 c 0.24 0.1 0.47 0.22 0.69 0.36 c 0.22 0.15 0.42 0.32 0.61 0.5 c 0.74 0.75 1.17 1.78 1.17 2.83 c 0 1.05 -0.43 2.08 -1.17 2.83 C 31.04 48.569 30.01 49 28.96 49 z" style="stroke: none; stroke-width: 1; stroke-dasharray: none; stroke-linecap: butt; stroke-linejoin: miter; stroke-miterlimit: 10; fill: rgb(0,0,0); fill-rule: nonzero; opacity: 1;" transform=" matrix(1 0 0 1 0 0) " stroke-linecap="round" />
</g>
</svg>